<svg width="263" height="167" viewBox="0 0 263 167" fill="none" xmlns="http://www.w3.org/2000/svg">
<path d="M100.578 116.194C100.767 116.591 100.697 116.951 100.697 117.307V165.454C100.685 165.628 100.685 165.802 100.697 165.975C100.743 166.373 100.578 166.572 100.152 166.518C99.9158 166.497 99.6552 166.518 99.4186 166.518H0C0.354008 165.952 0.61454 165.548 0.898939 165.17C3.95375 160.795 7.57736 156.905 11.5092 153.327C19.2537 146.27 27.8751 140.491 37.0654 135.493C50.8733 127.938 65.68 122.372 81.046 118.962C87.2113 117.612 93.4084 116.641 99.6851 116.287C99.9615 116.265 100.246 116.217 100.578 116.194Z" fill="#06033A"/>
<path d="M30.2856 12.3877C30.4064 12.2761 30.5025 12.1403 30.5676 11.9893C30.6327 11.8382 30.6653 11.6751 30.6634 11.5106C30.8762 9.07234 31.3516 6.6798 32.346 4.45433C32.8909 3.1974 33.6486 2.03792 34.7604 1.23246C37.0595 -0.426211 39.4977 -0.306882 41.8664 0.971922C44.5672 2.46353 46.2239 4.87993 47.4351 7.67421C48.3082 9.73064 48.7258 11.9183 49.1236 14.116C49.219 14.7564 49.1474 15.4186 49.1474 16.2241C50.0006 15.6553 50.7106 15.182 51.4445 14.7325C52.8367 13.9032 54.2865 13.217 55.969 13.3403C58.3119 13.4835 60.4439 14.7862 61.2971 17.0833C62.1503 19.3803 61.7465 21.6058 60.7283 23.7617C60.6405 23.9899 60.4782 24.1818 60.2678 24.3063C60.0574 24.4308 59.8111 24.4807 59.5688 24.4478C59.3555 24.4359 59.1417 24.4359 58.9284 24.4478C44.1734 24.4478 29.4184 24.424 14.6873 24.4717C13.6691 24.4717 12.9591 24.1415 12.3664 23.4057C10.6839 21.3214 9.23999 19.0959 8.78655 16.419C8.26548 13.2469 8.88002 10.5222 11.9826 8.26488C13.333 7.29434 14.8484 6.79714 16.531 6.60621C20.9362 6.10901 24.6314 7.67222 28.0163 10.3253C28.7979 10.9418 29.5099 11.6996 30.2915 12.3857L30.2856 12.3877Z" fill="#FCCFCF"/>
<path d="M222.124 134.501C237.464 137.611 250.852 150.51 254.766 166.592C254.554 166.829 254.245 166.711 254.009 166.711H222.945C222.047 166.711 222.023 166.711 222.023 165.81V135.183C222.047 134.968 221.975 134.707 222.118 134.495L222.124 134.501ZM97.736 21.7908C102.734 17.9524 108.418 16.0113 114.695 16.1307C121.082 16.1941 127.243 18.5015 132.101 22.6492C136.959 26.7969 140.203 32.5206 141.267 38.819C141.373 39.3662 141.444 39.9195 141.48 40.4757C141.504 41.0922 141.195 41.4959 140.722 41.5656C140.201 41.6372 139.728 41.305 139.632 40.6666C139.479 39.4877 139.266 38.3174 138.994 37.1603C137.773 32.318 135.144 27.9467 131.438 24.5994C127.732 21.2521 123.116 19.0794 118.175 18.3562C110.999 17.314 104.534 19.0111 98.7782 23.4475C98.6827 23.8274 98.4003 24.0163 98.1398 24.253C95.7532 26.385 93.7107 28.8014 92.1952 31.6672C92.055 31.9908 91.8243 32.2671 91.5309 32.4628C89.5183 36.5378 88.7844 40.8715 89.0907 45.3721C89.2319 47.2539 89.5896 49.1131 90.1567 50.913C90.1918 51.0128 90.2158 51.1161 90.2283 51.2212C90.3715 51.9312 90.1567 52.4284 89.6316 52.6134C89.1583 52.7785 88.7088 52.6134 88.3528 51.973C87.6428 50.7658 86.8612 49.6043 85.8191 48.6576C81.4894 44.6204 76.3981 43.3654 70.8016 45.3304C65.2608 47.2953 62.0389 51.3923 61.2334 57.2433C60.7362 60.8232 61.6133 64.1107 63.5782 67.1198C63.8865 67.5931 64.4076 68.0426 64.0277 68.7108C63.6737 69.3273 63.0333 69.1086 62.5122 69.1384C60.5473 69.1623 58.6042 69.1384 56.6393 69.1623C56.1421 69.1623 55.9531 69.0191 55.975 68.498C56.0466 67.0064 55.8338 67.2669 57.1842 67.2669C58.5346 67.2669 59.883 67.2669 61.3766 67.2669C59.0378 62.8319 58.5167 58.3332 60.1018 53.6834C61.2801 50.2321 63.5761 47.2726 66.6263 45.2737C69.6764 43.2747 73.3063 42.3505 76.941 42.6475C80.8968 42.9796 84.2996 44.5905 87.3624 47.5021C86.6524 41.9335 87.3385 36.8441 89.6117 31.9656C89.6595 30.9473 90.2283 30.118 90.7016 29.2906C92.1501 26.8592 93.9608 24.6629 96.0714 22.7773C96.5905 22.3039 97.0658 21.8525 97.7281 21.7829L97.736 21.7908Z" fill="#06033A"/>
<path d="M97.736 21.7909C94.5279 24.2508 91.9155 27.4023 90.093 31.011C89.926 31.3192 89.926 31.6971 89.6654 31.9338C89.6893 31.536 89.3572 31.4366 89.1205 31.2476C85.9384 28.69 85.7813 24.261 88.7426 21.4667C90.9303 19.4301 94.4266 19.3108 96.9127 21.2061C97.1971 21.405 97.386 21.7033 97.742 21.8028L97.736 21.7909Z" fill="#053AB5"/>
<path d="M248.317 138.313C247.82 138.148 247.109 138.291 246.777 137.887C246.445 137.484 246.825 136.821 246.921 136.296C248.128 129.57 249.359 122.82 250.568 116.094C250.614 115.786 250.685 115.48 250.733 115.171C250.757 114.972 250.829 114.815 251.041 114.815C251.534 114.817 252.023 114.906 252.485 115.076C252.794 115.219 252.628 115.503 252.581 115.74C252.32 117.279 252.036 118.843 251.751 120.382C250.709 126.042 249.691 131.718 248.649 137.386C248.577 137.695 248.577 138.003 248.317 138.309V138.313Z" fill="#070438"/>
<path d="M91.5309 32.4249C93.1812 28.8881 95.6588 25.8007 98.7543 23.4236C99.0148 24.2529 99.2992 25.0584 99.2992 25.9593C99.3348 26.8831 99.1681 27.8034 98.8108 28.656C98.4536 29.5086 97.9143 30.2728 97.2309 30.8953C96.5474 31.5177 95.7363 31.9834 94.8541 32.2596C93.9719 32.5358 93.04 32.616 92.1236 32.4945C91.9566 32.4707 91.7437 32.4468 91.5309 32.4249Z" fill="#053AB5"/>
<path d="M93.4263 147.836C93.8042 145.68 94.1602 143.524 94.538 141.37C94.9358 139.119 95.3196 136.869 95.7313 134.62C96.1092 132.583 96.5129 130.523 96.8908 128.484C97.3661 125.927 97.7917 123.369 98.2412 120.812C98.5495 119.131 98.8577 117.472 99.166 115.79C99.6393 113.204 100.089 110.605 100.558 108C100.866 106.317 101.175 104.659 101.459 102.978C101.857 100.729 102.241 98.4773 102.652 96.228C103.008 94.2153 103.41 92.2026 103.766 90.1879C104.239 87.6025 104.689 85.0011 105.158 82.3958C105.467 80.7153 105.775 79.0566 106.083 77.376C106.556 74.7906 107.006 72.1892 107.475 69.5839C107.784 67.9014 108.092 66.2447 108.376 64.5622C108.774 62.3128 109.158 60.0635 109.569 57.8121C109.949 55.7756 110.351 53.7152 110.731 51.6786C111.204 49.121 111.63 46.5634 112.105 44.0058C112.435 42.1582 112.815 40.3345 113.171 38.4869C113.714 38.0374 114.378 38.1547 114.993 38.1547C124.776 38.1547 134.581 38.2741 144.362 38.1329C169.466 37.7351 194.547 38.0851 219.652 37.934C220.316 37.934 220.979 37.8863 221.641 38.0056C221.791 38.0432 221.93 38.1138 222.049 38.2122C222.168 38.3106 222.264 38.4344 222.329 38.5744C225.644 44.6124 229.34 50.4158 232.87 56.3126C237.795 64.5542 242.737 72.7885 247.696 81.0156C248.17 81.8111 248.738 82.5788 249.287 83.3365C249.333 84.2832 249.051 85.208 248.889 86.1308C246.096 101.572 243.312 117.014 240.536 132.456C239.707 137.074 238.878 141.668 238.025 146.288C237.955 146.738 237.883 147.187 237.551 147.543C236.935 147.993 236.225 147.875 235.515 147.875C225.734 147.875 215.953 147.78 206.17 147.897C169.248 148.351 132.337 147.953 95.4628 148.096C94.7528 148.166 94.0408 148.309 93.4263 147.836Z" fill="#FCCFCF"/>
<path d="M93.4263 147.836C103.585 147.836 113.753 147.828 123.931 147.812C150.243 147.812 176.557 147.929 202.886 147.74C214.065 147.668 225.243 147.716 236.422 147.599C236.801 147.599 237.203 147.623 237.535 147.384C237.844 147.764 237.677 148.19 237.631 148.593C237.203 151.103 236.73 153.613 236.257 156.125C235.972 157.569 235.736 157.782 234.244 157.805C228.797 157.829 223.349 157.805 217.902 157.805C217.546 157.805 217.192 157.829 216.86 157.805C216.007 157.758 215.666 158.161 215.666 158.999V165.18C215.666 165.701 215.738 166.246 215.36 166.672C214.933 166.672 214.531 166.695 214.103 166.695H49.9191C48.2127 166.695 48.4036 166.884 48.3798 165.204V158.494C48.3798 157.473 48.3798 157.473 49.4219 157.473H90.7255C91.6264 157.473 91.6503 157.473 91.8153 156.551C92.2887 153.945 92.762 151.364 93.2354 148.758C93.276 148.446 93.3426 148.137 93.4342 147.836H93.4263ZM222.005 38.3218H191.5C176.817 38.3218 162.156 38.1547 147.496 38.3934C136.53 38.5585 125.565 38.4153 114.599 38.5346C114.102 38.5346 113.629 38.5346 113.131 38.5107C113.344 37.1842 113.557 35.8338 113.794 34.5092C114.054 33.0395 114.362 31.5718 114.575 30.104C114.671 29.5352 114.884 29.2747 115.452 29.3224C115.759 29.3443 116.091 29.3224 116.399 29.3224H259.639C259.969 29.3224 260.349 29.2508 260.657 29.4875C260.586 29.5591 260.514 29.6864 260.421 29.6864C258.999 29.6625 258.83 30.635 258.666 31.7468C258.336 33.8072 257.956 35.8437 257.579 37.9121C257.507 38.292 257.555 38.7892 256.938 38.8369C255.707 38.5764 254.452 38.6937 253.197 38.6937C250.568 38.6698 247.915 38.7176 245.286 38.6698C242.989 38.6937 240.692 38.7176 238.395 38.6698C236.831 38.7176 235.292 38.7176 233.729 38.6698C230.175 38.7414 226.623 38.6937 223.095 38.6937C222.697 38.6698 222.313 38.6241 222.005 38.3397V38.3218Z" fill="#F5ACB5"/>
<path d="M257.058 38.7474C257.256 37.753 257.435 36.7586 257.654 35.7403C258.106 33.5129 258.603 31.365 259.148 29.2986H260.592C261.113 29.3224 261.61 29.3224 262.131 29.3443C262.059 29.7242 261.966 30.293 261.87 30.9553C260.615 38.4153 259.597 43.437 258.744 48.1266C257.845 53.0324 256.953 57.9348 256.067 62.8339C255.12 68.1162 254.198 73.3964 253.249 78.6787C252.374 83.4857 251.473 88.2707 250.62 93.0777C249.601 98.7378 248.599 104.399 247.613 110.06C246.974 113.66 246.286 117.26 245.624 120.859C244.936 124.6 244.297 128.343 243.635 132.086C243.068 135.282 242.499 138.45 241.907 141.654C241.221 145.467 240.533 149.256 239.846 153.068C239.325 155.888 238.804 158.683 238.307 161.501C238.046 163.04 237.81 164.603 237.597 166.143C237.525 166.568 237.384 166.781 236.933 166.739H215.965C215.759 166.736 215.554 166.72 215.35 166.691V158.943C215.35 158.706 215.35 158.446 215.374 158.209C215.444 157.734 215.68 157.451 216.225 157.497C216.462 157.521 216.722 157.497 216.959 157.497H234.558C235.765 157.497 235.718 157.497 235.907 156.304C236.263 154.244 236.664 152.207 237.044 150.17C237.209 149.246 237.4 148.323 237.565 147.422C237.85 145.67 238.134 143.918 238.464 142.187C238.939 139.584 239.413 137.003 239.886 134.397C240.503 131.056 241.141 127.693 241.734 124.354C242.529 119.831 243.325 115.33 244.12 110.808C244.783 107.16 245.469 103.489 246.133 99.8416C246.867 95.8163 247.577 91.7651 248.287 87.7397C248.547 86.2481 248.832 84.7307 249.082 83.2391C248.956 83.0609 248.905 82.84 248.941 82.6245C249.006 82.3524 249.046 82.0747 249.059 81.7952C249.854 77.4616 250.598 73.126 251.403 68.7924C251.801 66.5907 252.161 64.3871 252.565 62.2074C253.134 59.2958 253.631 56.3822 254.128 53.4686C254.933 49.3716 255.596 45.2508 256.377 41.138C256.473 40.2848 256.425 39.4097 257.042 38.7514L257.058 38.7474Z" fill="#F5ACB5"/>
<path d="M257.058 38.7474C257.256 37.753 257.435 36.7586 257.654 35.7403C258.106 33.5129 258.603 31.365 259.148 29.2986H260.592C261.113 29.3224 261.61 29.3224 262.131 29.3443C262.059 29.7242 261.966 30.293 261.87 30.9553C260.615 38.4153 259.597 43.437 258.744 48.1266C257.845 53.0324 256.953 57.9348 256.067 62.8339C255.12 68.1162 254.198 73.3964 253.249 78.6787C252.374 83.4857 251.473 88.2707 250.62 93.0777C249.601 98.7378 248.599 104.399 247.613 110.06C246.974 113.66 246.286 117.26 245.624 120.859C244.936 124.6 244.297 128.343 243.635 132.086C243.068 135.282 242.499 138.45 241.907 141.654C241.221 145.467 240.533 149.256 239.846 153.068C239.325 155.888 238.804 158.683 238.307 161.501C238.046 163.04 237.81 164.603 237.597 166.143C237.525 166.568 237.384 166.781 236.933 166.739H215.965C215.759 166.736 215.554 166.72 215.35 166.691V158.943C215.35 158.706 215.35 158.446 215.374 158.209C215.444 157.734 215.68 157.451 216.225 157.497C216.462 157.521 216.722 157.497 216.959 157.497H234.558C235.765 157.497 235.718 157.497 235.907 156.304C236.263 154.244 236.664 152.207 237.044 150.17C237.209 149.246 237.4 148.323 237.565 147.422C237.85 145.67 238.134 143.918 238.464 142.187C238.939 139.584 239.413 137.003 239.886 134.397C240.503 131.056 241.141 127.693 241.734 124.354C242.529 119.831 243.325 115.33 244.12 110.808C244.783 107.16 245.469 103.489 246.133 99.8416C246.867 95.8163 247.577 91.7651 248.287 87.7397C248.547 86.2481 248.832 84.7307 249.082 83.2391C248.956 83.0609 248.905 82.84 248.941 82.6245C249.006 82.3524 249.046 82.0747 249.059 81.7952C249.854 77.4616 250.598 73.126 251.403 68.7924C251.801 66.5907 252.161 64.3871 252.565 62.2074C253.134 59.2958 253.631 56.3822 254.128 53.4686C254.933 49.3716 255.596 45.2508 256.377 41.138C256.473 40.2848 256.425 39.4097 257.042 38.7514L257.058 38.7474Z" fill="#F38795"/>
<path d="M167.177 137.959C163.719 138.124 160.38 137.486 157.136 136.42C153.613 135.271 150.342 133.462 147.496 131.09C144.038 128.202 141.148 124.861 138.994 120.883C137.167 117.51 135.82 113.899 134.99 110.153C134.548 108.116 134.248 106.051 134.091 103.972C133.948 102.409 133.924 100.846 133.924 99.2827C133.952 96.4658 134.254 93.6583 134.825 90.8998C135.256 88.6434 135.841 86.4192 136.578 84.2433C137.766 80.7055 139.331 77.3052 141.243 74.1004C142.546 71.919 144.009 69.837 145.619 67.8714C147.395 65.7629 149.335 63.7985 151.422 61.9965C154.463 59.3161 157.887 57.1041 161.581 55.4334C164.206 54.2063 166.976 53.3149 169.824 52.7803C172.499 52.307 175.194 51.9848 177.923 52.1638C180.309 52.3309 182.684 52.6153 185.005 53.3253C187.137 53.9875 189.245 54.7174 191.21 55.8113C193.129 56.8719 194.944 58.1089 196.634 59.5065C197.58 60.2881 198.424 61.1413 199.311 62.0164C201.441 64.1484 203.147 66.6105 204.591 69.2636C206.367 72.5093 207.741 75.942 208.499 79.5895C208.969 81.7623 209.309 83.9612 209.517 86.1744C209.613 87.5248 209.66 88.8732 209.684 90.2475C209.706 93.0418 209.352 95.7903 208.903 98.5369C208.419 101.279 207.722 103.979 206.818 106.613C205.071 111.7 202.52 116.474 199.261 120.752C197.875 122.634 196.33 124.393 194.643 126.01C191.777 128.711 188.722 131.181 185.24 133.116C183.055 134.355 180.755 135.378 178.372 136.171C176.034 136.956 173.621 137.496 171.171 137.782C169.799 137.923 168.496 137.876 167.169 137.947L167.177 137.959Z" fill="white"/>
<path d="M127.682 157.473H144.26C145.233 157.497 145.374 157.64 145.185 158.563C145.137 158.847 145.066 159.108 145.018 159.392C144.977 159.672 144.837 159.928 144.625 160.114C144.413 160.301 144.141 160.406 143.859 160.411C143.574 160.435 143.29 160.411 143.029 160.411H111.97C110.431 160.363 109.697 159.44 109.981 157.925C109.982 157.865 109.995 157.806 110.02 157.751C110.045 157.697 110.08 157.648 110.125 157.608C110.169 157.568 110.221 157.537 110.278 157.518C110.335 157.499 110.395 157.492 110.454 157.497H111.284C116.754 157.473 122.217 157.465 127.672 157.473H127.682Z" fill="#FCCFCF"/>
<path d="M249.098 82.6106C249.074 82.3739 249.029 82.1133 249.265 81.9463C249.289 82.183 249.311 82.4196 249.098 82.6106Z" fill="#FFDCDF"/>
<path d="M163.293 80.4546C163.245 79.5537 163.647 78.7502 163.955 77.9448C165.258 74.6752 167.336 72.0002 170.469 70.3177C174.305 68.2573 177.953 68.4462 181.363 71.2664C183.068 72.6585 184.064 74.6056 184.655 76.7356C184.987 77.9448 185.252 79.1758 185.083 80.4546C183.519 80.4546 181.932 80.4785 180.369 80.4785C174.661 80.4785 168.977 80.4546 163.293 80.4546Z" fill="white"/>
<path d="M177.788 75.6657H227.579C227.797 75.6654 228.012 75.7144 228.208 75.8089C228.404 75.9033 228.577 76.0409 228.712 76.2112C228.848 76.3816 228.943 76.5804 228.991 76.7928C229.039 77.0051 229.039 77.2256 228.989 77.4377L220.923 112.387C220.849 112.706 220.669 112.991 220.412 113.195C220.155 113.399 219.837 113.509 219.509 113.509L168.629 113.348C168.408 113.347 168.191 113.295 167.993 113.197C167.795 113.099 167.623 112.957 167.488 112.782C167.354 112.607 167.261 112.403 167.218 112.187C167.174 111.971 167.181 111.747 167.237 111.534L176.385 76.7396C176.468 76.4308 176.65 76.158 176.903 75.9637C177.157 75.7694 177.468 75.6646 177.788 75.6657Z" fill="#99CDFF"/>
<path d="M227.579 75.6656H177.788C177.653 75.6668 177.519 75.6862 177.39 75.7233L196.321 97.5525L228.321 75.8745C228.098 75.7379 227.841 75.6656 227.579 75.6656Z" fill="#008CFF"/>
<path d="M144.646 86.2003H165.288" stroke="#06033A" stroke-width="5" stroke-miterlimit="10" stroke-linecap="round"/>
<path d="M147.313 93.1611H167.955" stroke="#06033A" stroke-width="5" stroke-miterlimit="10" stroke-linecap="round"/>
<path d="M142.399 100.321H163.041" stroke="#06033A" stroke-width="5" stroke-miterlimit="10" stroke-linecap="round"/>
</svg>
