<svg width="328" height="159" viewBox="0 0 328 159" fill="none" xmlns="http://www.w3.org/2000/svg">
<path d="M186.944 112.909C185.128 112.913 183.314 113.025 181.511 113.243C178.285 102.325 171.374 92.8624 161.955 86.4679C152.536 80.0734 141.191 77.1421 129.854 78.1733C118.516 79.2046 107.886 84.1346 99.7753 92.1236C91.6645 100.113 86.5741 110.666 85.3713 121.987C79.5032 118.27 72.6757 116.35 65.73 116.465C58.7844 116.579 52.024 118.723 46.2816 122.632C40.5393 126.541 36.0659 132.045 33.4126 138.465C30.7593 144.885 30.0419 151.94 31.3489 158.763H232.797C232.797 146.602 227.966 134.939 219.367 126.34C210.768 117.74 199.105 112.909 186.944 112.909Z" fill="#06033A"/>
<path d="M203.281 91.785C198.859 86.8977 192.608 80.6775 188.044 76.6385C183.48 72.5994 163.466 62.0777 158.7 66.7428C153.934 71.4079 149.037 82.4547 150.551 88.8566C152.066 95.2585 162.537 101.66 170.343 105.619C178.148 109.577 180.834 113.202 180.834 113.202L203.281 91.785Z" fill="#99CDFF"/>
<path d="M174.978 37.8232H150.764C149.091 37.8232 147.734 39.1795 147.734 40.8525V92.2092C147.734 93.8822 149.091 95.2385 150.764 95.2385H174.978C176.651 95.2385 178.007 93.8822 178.007 92.2092V40.8525C178.007 39.1795 176.651 37.8232 174.978 37.8232Z" fill="#008CFF"/>
<path d="M190.771 79.2743C186.812 75.2958 179.088 68.6213 174.826 65.8848C172.161 64.1783 167.243 64.9558 168.303 69.2574C169.364 73.559 178.31 85.4137 184.833 90.2201C191.356 95.0266 195.638 84.1716 190.771 79.2743Z" fill="#99CDFF"/>
<path d="M210.299 158.763H287.546C287.41 158.355 287.184 157.983 286.885 157.674C286.586 157.365 286.222 157.126 285.82 156.976C284.497 156.491 261.141 148.362 249.034 138.123C236.927 127.884 203.282 91.7852 203.282 91.7852C203.282 91.7852 178.351 115.585 177.028 116.827C175.705 118.069 174.089 120.109 176.826 123.098C178.775 125.178 194.668 144.091 210.299 158.763Z" fill="#F5ACB5"/>
<path d="M142.797 158.763C145.392 156.915 200.676 117.302 228.102 120.614C234.261 121.351 248.206 123.037 252.336 132.075C252.836 133.179 253.176 134.348 253.346 135.548C257.556 133.034 291.596 113.081 312.387 122.209C315.698 123.565 318.669 125.634 321.091 128.268C330.845 139.113 326.927 155.734 326.14 158.733L142.797 158.763Z" fill="#FCCFCF"/>
<path d="M129.912 49.1529C129.628 48.7031 129.467 48.1863 129.445 47.6545C129.424 47.1227 129.543 46.5947 129.791 46.1236C135.143 35.723 135.971 24.8378 130.982 16.1538C121.41 -0.527518 94.015 -2.78939 69.8008 11.105C45.5867 24.9993 33.7421 49.8597 43.3147 66.5411C52.8873 83.2224 80.2822 85.4842 104.496 71.5899C108.875 69.0826 112.977 66.1211 116.735 62.7544C117.07 62.4591 117.467 62.2416 117.896 62.1177C118.326 61.9937 118.777 61.9663 119.219 62.0375L139.162 65.2688C139.242 65.2815 139.325 65.2707 139.399 65.2376C139.474 65.2046 139.537 65.1507 139.582 65.0825C139.627 65.0143 139.651 64.9346 139.652 64.853C139.652 64.7714 139.629 64.6914 139.586 64.6225L129.912 49.1529Z" stroke="#06033A" stroke-width="4" stroke-linecap="round" stroke-linejoin="round"/>
<path d="M277.091 37.8318L267.709 28.4497L258.327 37.8318L267.709 47.2139L277.091 37.8318Z" fill="#053AB5"/>
<path d="M6.1351 89.4122C9.29155 89.4122 11.8504 86.8534 11.8504 83.697C11.8504 80.5405 9.29155 77.9817 6.1351 77.9817C2.97864 77.9817 0.41983 80.5405 0.41983 83.697C0.41983 86.8534 2.97864 89.4122 6.1351 89.4122Z" fill="#F38795"/>
</svg>
